<?xml version="1.0" encoding="UTF-8" standalone="no"?>
<!-- Created with Inkscape (http://www.inkscape.org/) -->

<svg
   xmlns:dc="http://purl.org/dc/elements/1.1/"
   xmlns:cc="http://creativecommons.org/ns#"
   xmlns:rdf="http://www.w3.org/1999/02/22-rdf-syntax-ns#"
   xmlns:svg="http://www.w3.org/2000/svg"
   xmlns="http://www.w3.org/2000/svg"
   xmlns:sodipodi="http://sodipodi.sourceforge.net/DTD/sodipodi-0.dtd"
   xmlns:inkscape="http://www.inkscape.org/namespaces/inkscape"
   width="414.86194mm"
   height="94.448517mm"
   viewBox="0 0 414.86194 94.448517"
   version="1.1"
   id="svg3066"
   inkscape:version="0.92.5 (2060ec1f9f, 2020-04-08)"
   sodipodi:docname="logo_name_black_big.svg">
  <defs
     id="defs3060" />
  <sodipodi:namedview
     id="base"
     pagecolor="#ffffff"
     bordercolor="#666666"
     borderopacity="1.0"
     inkscape:pageopacity="0.0"
     inkscape:pageshadow="2"
     inkscape:zoom="0.35"
     inkscape:cx="420.68212"
     inkscape:cy="45.541916"
     inkscape:document-units="mm"
     inkscape:current-layer="layer1"
     showgrid="false"
     fit-margin-top="0"
     fit-margin-left="0"
     fit-margin-right="0"
     fit-margin-bottom="0"
     inkscape:window-width="1920"
     inkscape:window-height="1003"
     inkscape:window-x="0"
     inkscape:window-y="0"
     inkscape:window-maximized="1" />
  <metadata
     id="metadata3063">
    <rdf:RDF>
      <cc:Work
         rdf:about="">
        <dc:format>image/svg+xml</dc:format>
        <dc:type
           rdf:resource="http://purl.org/dc/dcmitype/StillImage" />
        <dc:title></dc:title>
      </cc:Work>
    </rdf:RDF>
  </metadata>
  <g
     inkscape:label="Layer 1"
     inkscape:groupmode="layer"
     id="layer1"
     transform="translate(160.44238,-67.946355)">
    <g
       transform="translate(-949.57034,303.79014)"
       id="g1315">
      <text
         xml:space="preserve"
         style="font-style:normal;font-variant:normal;font-weight:normal;font-stretch:normal;font-size:25.39999962px;line-height:1.25;font-family:'Work Sans';-inkscape-font-specification:'Work Sans';letter-spacing:0.47624999px;word-spacing:0px;fill:#000000;fill-opacity:1;stroke:none;stroke-width:0.26458332"
         x="884.7796"
         y="-148.30307"
         id="text1060-0-0"><tspan
           sodipodi:role="line"
           id="tspan1058-4-3"
           x="884.7796"
           y="-148.30307"
           style="font-style:normal;font-variant:normal;font-weight:bold;font-stretch:normal;font-size:77.6111145px;font-family:Ubuntu;-inkscape-font-specification:'Ubuntu Bold';stroke-width:0.26458332">mlcolvar</tspan></text>
      <g
         id="g1682-6-0"
         transform="translate(223.45641,-327.97317)">
        <path
           sodipodi:nodetypes="csccscscccsscccccccccccccccccccccsscssccccccscsccsaccsscczsccscccc"
           inkscape:connector-curvature="0"
           style="color:#000000;font-style:normal;font-variant:normal;font-weight:normal;font-stretch:normal;font-size:medium;line-height:normal;font-family:sans-serif;font-variant-ligatures:normal;font-variant-position:normal;font-variant-caps:normal;font-variant-numeric:normal;font-variant-alternates:normal;font-feature-settings:normal;text-indent:0;text-align:start;text-decoration:none;text-decoration-line:none;text-decoration-style:solid;text-decoration-color:#000000;letter-spacing:normal;word-spacing:normal;text-transform:none;writing-mode:lr-tb;direction:ltr;text-orientation:mixed;dominant-baseline:auto;baseline-shift:baseline;text-anchor:start;white-space:normal;shape-padding:0;clip-rule:nonzero;display:inline;overflow:visible;visibility:visible;opacity:1;isolation:auto;mix-blend-mode:normal;color-interpolation:sRGB;color-interpolation-filters:linearRGB;solid-color:#000000;solid-opacity:1;vector-effect:none;fill:#8246b0;fill-opacity:1;fill-rule:nonzero;stroke:none;stroke-width:0.2;stroke-linecap:butt;stroke-linejoin:miter;stroke-miterlimit:4;stroke-dasharray:none;stroke-dashoffset:0;stroke-opacity:1;color-rendering:auto;image-rendering:auto;shape-rendering:auto;text-rendering:auto;enable-background:accumulate"
           d="m 632.40994,92.173184 c -0.78708,0.148835 -1.41249,0.686778 -1.86523,1.574219 -1.17095,2.295245 -0.96888,4.98832 0.52539,6.419927 0.2213,0.21202 0.39497,0.39642 0.51758,0.54492 0.1145,0.13869 0.26024,0.31378 0.19726,0.30078 -1.12722,-0.23265 -1.94461,-1.660672 -2.22461,-2.470723 -0.1612,-0.646788 -0.0235,-1.536301 -0.64123,-1.246323 -1.26223,0.592486 -1.61584,0.859875 -2.28259,1.45726 -0.81941,0.894511 -1.69672,2.019236 -2.24805,2.960946 -0.99997,1.70799 -1.82641,3.66029 -3.54688,8.37109 -1.00839,2.76111 -1.88312,3.96977 -3.33398,4.6582 -1.64658,0.7813 -4.87941,1.44838 -9.10742,1.85938 -10.88826,1.05844 -15.03868,1.77372 -19.58985,3.3789 -7.69423,2.71375 -12.66546,6.0366 -16.45586,12.97214 -1.3631,2.49417 -4.18759,9.08599 -5.22187,13.52591 -1.10559,4.74601 -1.45117,7.45993 -1.45117,11.41797 -0.2034,5.0912 2.77908,10.02415 4.69726,12.9375 1.80274,2.42764 2.78068,5.47269 3.98243,8.02734 0.88499,1.40285 1.2602,3.8509 2.79492,4.6875 1.21334,0.62744 3.55849,1.08344 6.65625,1.36328 3.09776,0.27985 6.9397,0.37681 11.10937,0.25196 l 5.66406,-0.16992 c 1.58747,0.5217 3.42404,1.27996 4.85938,1.45117 0.92637,0.10556 2.14636,0.11935 4.43555,0.1289 2.4533,0.0102 3.8033,-0.007 4.57031,-0.15625 0.61753,-0.11797 0.96941,-0.44246 0.97266,-1.02734 0.20044,-0.76721 0.97672,-1.15743 1.62695,-1.37109 0.45164,-0.14504 0.7759,-0.3988 0.91797,-0.7168 0.21507,-0.93215 -0.44,-1.23824 -1.10352,-1.58594 -1.16131,-0.59798 -2.26661,-1.0404 -3.42187,-1.58789 -1.22828,-0.43288 -0.69315,-0.94431 -0.0818,-1.84964 0.53633,-0.78961 1.21859,-2.22334 1.53711,-3.22656 0.30705,-1.18122 0.89032,-2.16129 1.91211,-2.63281 0.55167,-0.25316 1.20827,-0.76291 1.97461,-0.84961 1.15951,-0.13119 1.37179,0.13652 2.38963,0.57881 0.97345,0.423 1.27002,1.60535 1.38888,2.37865 0.36018,2.51902 0.80678,8.56131 1.34291,8.94022 0.24342,0.17203 0.77792,-0.30408 0.91698,-0.35778 0.50217,-0.19383 0.34373,-1.23744 0.54914,-1.09343 0.97055,1.77528 1.52816,1.82407 3.22496,2.61801 0.81316,0.38048 1.3623,0.58241 1.90821,0.59766 0.5459,0.0152 1.47983,-0.83643 2.22395,-1.17409 0.89433,-0.27741 1.74465,0.47119 2.5573,-0.008 0.53911,-0.38927 0.5347,-1.10622 0.88099,-1.55951 0.65448,-0.0993 1.77294,0.49896 2.19713,-0.14362 0.24987,-0.37852 -0.12746,-1.18033 -0.12746,-1.18033 0.0582,-0.99131 0.99742,-0.70706 0.18412,-1.68358 -0.21096,-0.25329 -1.55654,-0.29342 -2.10669,-0.56773 -2.02798,-1.01118 -3.3823,-1.2401 -4.9568,-3.59972 -1.81311,-2.71718 -1.46123,-3.88217 -1.11226,-7.59754 0.31823,-3.38808 3.42162,-5.94875 5.7293,-8.44975 1.37324,-1.48828 0,0 4.73832,-3.802 6.5795,-6.30284 4.6134,-14.97125 6.11962,-23.30346 0.65891,-3.69492 2.40415,-8.08868 4.91899,-9.64412 2.83251,-1.75191 6.56527,-2.02403 9.90769,-2.37556 1.52283,-0.16016 1.63468,-1.04505 1.96806,-2.42777 0.35521,-1.44677 -3.89546,0.9439 -0.17539,0.79512 8.10062,-1.7413 7.30103,-5.14011 7.54801,-7.32994 0.24699,-2.18983 0.30957,-7.50638 0.0231,-8.27664 -0.54512,-1.46571 -2.23331,-4.064754 -6.48086,-5.363283 -4.24084,-1.557141 -7.95073,-2.43889 -11.91797,-3.265625 -5.18559,-1.081449 -10.81144,-1.490701 -12.94922,-1.03125 -1.60541,0.345034 -2.00988,0.646784 -2.55761,0.596679 -0.54774,-0.05011 -1.2828,-0.652958 -1.91505,-0.99707 -1.07898,-0.587254 -2.00588,-0.82071 -2.79297,-0.671875 z"
           id="path1007-5-9-6" />
        <path
           inkscape:connector-curvature="0"
           style="color:#000000;font-style:normal;font-variant:normal;font-weight:normal;font-stretch:normal;font-size:medium;line-height:normal;font-family:sans-serif;font-variant-ligatures:normal;font-variant-position:normal;font-variant-caps:normal;font-variant-numeric:normal;font-variant-alternates:normal;font-feature-settings:normal;text-indent:0;text-align:start;text-decoration:none;text-decoration-line:none;text-decoration-style:solid;text-decoration-color:#000000;letter-spacing:normal;word-spacing:normal;text-transform:none;writing-mode:lr-tb;direction:ltr;text-orientation:mixed;dominant-baseline:auto;baseline-shift:baseline;text-anchor:start;white-space:normal;shape-padding:0;clip-rule:nonzero;display:inline;overflow:visible;visibility:visible;opacity:1;isolation:auto;mix-blend-mode:normal;color-interpolation:sRGB;color-interpolation-filters:linearRGB;solid-color:#000000;solid-opacity:1;vector-effect:none;fill:#ffffff;fill-opacity:1;fill-rule:nonzero;stroke:none;stroke-width:0.2;stroke-linecap:butt;stroke-linejoin:miter;stroke-miterlimit:4;stroke-dasharray:none;stroke-dashoffset:0;stroke-opacity:1;color-rendering:auto;image-rendering:auto;shape-rendering:auto;text-rendering:auto;enable-background:accumulate"
           d="m 633.94507,95.313809 c -0.23302,0 -0.40951,0.01721 -0.54687,0.07813 -0.0687,0.03046 -0.13165,0.07518 -0.16993,0.142578 -0.0383,0.0674 -0.0448,0.149072 -0.0293,0.222656 0.0311,0.147169 0.13097,0.286797 0.28515,0.460938 0.15419,0.174141 0.3679,0.378448 0.64649,0.623047 0.548,0.481156 0.89816,0.751331 1.1914,0.810547 0.0733,0.0148 0.1478,0.01388 0.2168,-0.01172 0.069,-0.02559 0.12641,-0.07786 0.16406,-0.138672 0.0753,-0.121626 0.0937,-0.272213 0.0937,-0.466797 0,-0.422326 -0.25543,-0.842902 -0.60547,-1.166016 -0.35004,-0.323113 -0.80144,-0.554687 -1.24609,-0.554687 z"
           id="path1003-3-3-8" />
        <path
           inkscape:connector-curvature="0"
           id="path999-5-7-9"
           d="m 646.42128,101.21621 c -0.29914,-0.14624 -0.25902,-0.55544 -0.10452,-0.79521 0.21793,-0.3449 0.66487,-0.37787 1.03157,-0.41956 0.93791,-0.09179 1.88099,0.0163 2.81218,0.12932 0.69194,0.0978 1.39801,0.21137 2.0333,0.51591 0.26798,0.0917 0.46277,0.42616 0.19737,0.63746 -0.31086,0.39796 -0.77092,0.66178 -1.26595,0.75078 -0.72408,0.13851 -1.46413,0.0245 -2.18947,-0.0439 -0.46629,-0.0658 -0.93017,-0.15983 -1.38607,-0.27901 -0.40237,-0.10168 -0.76583,-0.30035 -1.12841,-0.4958 z"
           style="color:#000000;font-style:normal;font-variant:normal;font-weight:normal;font-stretch:normal;font-size:medium;line-height:normal;font-family:sans-serif;font-variant-ligatures:normal;font-variant-position:normal;font-variant-caps:normal;font-variant-numeric:normal;font-variant-alternates:normal;font-feature-settings:normal;text-indent:0;text-align:start;text-decoration:none;text-decoration-line:none;text-decoration-style:solid;text-decoration-color:#000000;letter-spacing:normal;word-spacing:normal;text-transform:none;writing-mode:lr-tb;direction:ltr;text-orientation:mixed;dominant-baseline:auto;baseline-shift:baseline;text-anchor:start;white-space:normal;shape-padding:0;clip-rule:nonzero;display:inline;overflow:visible;visibility:visible;opacity:1;isolation:auto;mix-blend-mode:normal;color-interpolation:sRGB;color-interpolation-filters:linearRGB;solid-color:#000000;solid-opacity:1;vector-effect:none;fill:#ffffff;fill-opacity:1;fill-rule:nonzero;stroke:none;stroke-width:0.2;stroke-linecap:butt;stroke-linejoin:miter;stroke-miterlimit:4;stroke-dasharray:none;stroke-dashoffset:0;stroke-opacity:1;color-rendering:auto;image-rendering:auto;shape-rendering:auto;text-rendering:auto;enable-background:accumulate" />
        <path
           style="color:#000000;font-style:normal;font-variant:normal;font-weight:normal;font-stretch:normal;font-size:medium;line-height:normal;font-family:sans-serif;font-variant-ligatures:normal;font-variant-position:normal;font-variant-caps:normal;font-variant-numeric:normal;font-variant-alternates:normal;font-feature-settings:normal;text-indent:0;text-align:start;text-decoration:none;text-decoration-line:none;text-decoration-style:solid;text-decoration-color:#000000;letter-spacing:normal;word-spacing:normal;text-transform:none;writing-mode:lr-tb;direction:ltr;text-orientation:mixed;dominant-baseline:auto;baseline-shift:baseline;text-anchor:start;white-space:normal;shape-padding:0;clip-rule:nonzero;display:inline;overflow:visible;visibility:visible;opacity:1;isolation:auto;mix-blend-mode:normal;color-interpolation:sRGB;color-interpolation-filters:linearRGB;solid-color:#000000;solid-opacity:1;vector-effect:none;fill:#ffffff;fill-opacity:1;fill-rule:nonzero;stroke:none;stroke-width:0.2;stroke-linecap:butt;stroke-linejoin:miter;stroke-miterlimit:4;stroke-dasharray:none;stroke-dashoffset:0;stroke-opacity:1;color-rendering:auto;image-rendering:auto;shape-rendering:auto;text-rendering:auto;enable-background:accumulate"
           d="m 668.50013,102.55795 c -0.0863,-0.002 -0.29713,0.0188 -0.50977,0.19532 -0.21264,0.17647 -0.42303,0.46058 -0.42187,0.74414 10e-4,0.28356 0.20596,0.66513 0.40625,0.95117 0.20029,0.28604 0.29328,0.34044 0.45508,0.41992 0.1618,0.0795 0.34607,0.11519 0.48828,0.0352 0.27082,-0.15241 0.39496,-0.52035 0.42531,-0.82963 0.0447,-0.45498 -0.0886,-1.03478 -0.37645,-1.31881 -0.19993,-0.1784 -0.38052,-0.19533 -0.46679,-0.19726 -0.0863,-0.002 0.0862,0.002 -4e-5,-1e-5 z"
           id="path995-62-4-2"
           inkscape:connector-curvature="0"
           sodipodi:nodetypes="zzzzzaaczz" />
        <g
           id="g1739-91-5-6"
           transform="matrix(0.60346513,-0.00876136,0.00876136,0.60346513,546.97872,65.794007)">
          <path
             sodipodi:nodetypes="cccccccccccccccccccccccc"
             inkscape:connector-curvature="0"
             id="path1318-3-2-2-6"
             d="m 92.008457,52.58301 c -3.184612,0.828096 -5.148291,3.781804 -6.848231,6.39023 -1.14206,1.804774 -2.003685,3.879618 -3.579739,5.348777 -3.226984,2.007197 -6.728577,3.577776 -9.67985,6.014597 -2.621096,2.229957 -6.188596,2.301318 -9.433323,2.69557 -2.82774,0.271572 -5.697461,0.490332 -8.410165,1.393849 -1.57561,1.730225 -0.871345,4.420691 5.29e-4,6.323971 0.739051,2.233017 3.268722,3.740638 5.286701,2.053151 2.736966,-1.273143 5.362574,-2.787552 8.002158,-4.226249 2.281844,-0.977093 3.829339,1.276084 5.679224,2.112146 2.236667,1.187399 4.785841,1.656235 7.044385,2.75129 1.695958,1.2873 7.44e-4,2.861638 -1.600117,2.722065 -1.373571,-0.01696 -2.018705,1.902564 -1.883452,2.323817 0.432035,-0.06326 0.462454,-0.09155 1.307915,-0.227427 2.138295,-0.455344 4.370949,-0.749483 6.517493,-0.188708 1.803391,0.373732 6.068801,1.823706 5.527058,-1.412447 0.418638,-1.608635 -0.690393,-2.892041 -2.198094,-2.537381 -1.637857,-2.213453 -3.440097,0.258937 -4.966304,0.804164 -0.502461,-3.141025 3.207678,-3.05959 5.296463,-3.489989 3.371278,-0.826387 5.021302,-4.527527 5.132064,-7.728777 0.416761,-3.991115 -0.280531,-8.06385 0.416976,-12.015923 0.626501,-2.830409 6.045896,-0.677297 5.283983,-3.755926 -0.92562,-1.926088 -1.762587,-4.33115 -4.001411,-5.032403 -0.914277,-0.356633 -1.923983,-0.489824 -2.894263,-0.318397 z"
             style="color:#000000;font-style:normal;font-variant:normal;font-weight:normal;font-stretch:normal;font-size:medium;line-height:normal;font-family:sans-serif;font-variant-ligatures:normal;font-variant-position:normal;font-variant-caps:normal;font-variant-numeric:normal;font-variant-alternates:normal;font-feature-settings:normal;text-indent:0;text-align:start;text-decoration:none;text-decoration-line:none;text-decoration-style:solid;text-decoration-color:#000000;letter-spacing:normal;word-spacing:normal;text-transform:none;writing-mode:lr-tb;direction:ltr;text-orientation:mixed;dominant-baseline:auto;baseline-shift:baseline;text-anchor:start;white-space:normal;shape-padding:0;clip-rule:nonzero;display:inline;overflow:visible;visibility:visible;opacity:1;isolation:auto;mix-blend-mode:normal;color-interpolation:sRGB;color-interpolation-filters:linearRGB;solid-color:#000000;solid-opacity:1;vector-effect:none;fill:#46b082;fill-opacity:1;fill-rule:nonzero;stroke:none;stroke-width:0.2;stroke-linecap:butt;stroke-linejoin:miter;stroke-miterlimit:4;stroke-dasharray:none;stroke-dashoffset:0;stroke-opacity:1;color-rendering:auto;image-rendering:auto;shape-rendering:auto;text-rendering:auto;enable-background:accumulate" />
          <path
             inkscape:connector-curvature="0"
             style="color:#000000;font-style:normal;font-variant:normal;font-weight:normal;font-stretch:normal;font-size:medium;line-height:normal;font-family:sans-serif;font-variant-ligatures:normal;font-variant-position:normal;font-variant-caps:normal;font-variant-numeric:normal;font-variant-alternates:normal;font-feature-settings:normal;text-indent:0;text-align:start;text-decoration:none;text-decoration-line:none;text-decoration-style:solid;text-decoration-color:#000000;letter-spacing:normal;word-spacing:normal;text-transform:none;writing-mode:lr-tb;direction:ltr;text-orientation:mixed;dominant-baseline:auto;baseline-shift:baseline;text-anchor:start;white-space:normal;shape-padding:0;clip-rule:nonzero;display:inline;overflow:visible;visibility:visible;opacity:1;isolation:auto;mix-blend-mode:normal;color-interpolation:sRGB;color-interpolation-filters:linearRGB;solid-color:#000000;solid-opacity:1;vector-effect:none;fill:#ffffff;fill-opacity:1;fill-rule:nonzero;stroke:none;stroke-width:0.2;stroke-linecap:butt;stroke-linejoin:miter;stroke-miterlimit:4;stroke-dasharray:none;stroke-dashoffset:0;stroke-opacity:1;color-rendering:auto;image-rendering:auto;shape-rendering:auto;text-rendering:auto;enable-background:accumulate"
             d="m 95.914346,55.090982 c 0.07675,0.01428 0.159979,0.06003 0.247082,0.146166 0.133002,0.131517 0.271582,0.497489 0.332129,0.858504 0.03019,0.180527 0.04371,0.36082 0.03672,0.510425 -0.007,0.149606 -0.03974,0.269598 -0.07689,0.320988 -0.111404,0.154184 -0.315109,0.223148 -0.537022,0.203207 -0.221919,-0.01997 -0.453508,-0.130557 -0.60351,-0.320231 -0.132688,-0.167748 -0.18907,-0.260037 -0.197956,-0.381581 -0.0088,-0.121552 0.03394,-0.293073 0.133634,-0.595228 0.121622,-0.368534 0.285555,-0.603213 0.439861,-0.695976 0.07711,-0.04635 0.149268,-0.0605 0.225947,-0.04651 z"
             id="path1310-6-7-5-4" />
          <path
             inkscape:connector-curvature="0"
             style="color:#000000;font-style:normal;font-variant:normal;font-weight:normal;font-stretch:normal;font-size:medium;line-height:normal;font-family:sans-serif;font-variant-ligatures:normal;font-variant-position:normal;font-variant-caps:normal;font-variant-numeric:normal;font-variant-alternates:normal;font-feature-settings:normal;text-indent:0;text-align:start;text-decoration:none;text-decoration-line:none;text-decoration-style:solid;text-decoration-color:#000000;letter-spacing:normal;word-spacing:normal;text-transform:none;writing-mode:lr-tb;direction:ltr;text-orientation:mixed;dominant-baseline:auto;baseline-shift:baseline;text-anchor:start;white-space:normal;shape-padding:0;clip-rule:nonzero;display:inline;overflow:visible;visibility:visible;opacity:1;isolation:auto;mix-blend-mode:normal;color-interpolation:sRGB;color-interpolation-filters:linearRGB;solid-color:#000000;solid-opacity:1;vector-effect:none;fill:#ffffff;fill-opacity:1;fill-rule:nonzero;stroke:none;stroke-width:0.2;stroke-linecap:butt;stroke-linejoin:miter;stroke-miterlimit:4;stroke-dasharray:none;stroke-dashoffset:0;stroke-opacity:1;color-rendering:auto;image-rendering:auto;shape-rendering:auto;text-rendering:auto;enable-background:accumulate"
             d="m 98.1262,57.290728 c -0.25681,-0.120907 -0.573869,-0.05389 -0.889811,0.186849 -0.06965,0.05305 -0.123781,0.09448 -0.16201,0.14875 -0.01914,0.02709 -0.03553,0.05991 -0.03775,0.09704 -0.0021,0.03711 0.0098,0.07408 0.02863,0.104193 0.03797,0.06033 0.09921,0.105356 0.188545,0.163513 0.08928,0.05815 0.207728,0.125956 0.364884,0.214242 0.395606,0.222239 0.627802,0.343272 0.805031,0.343173 0.04426,-3.7e-5 0.08795,-0.01112 0.12479,-0.0359 0.0368,-0.02497 0.06306,-0.06313 0.07635,-0.103253 0.02655,-0.08045 0.0199,-0.171444 0.0013,-0.287065 -0.06726,-0.417659 -0.243076,-0.710571 -0.499887,-0.831489 z"
             id="path1308-7-0-4-9" />
          <path
             inkscape:connector-curvature="0"
             style="color:#000000;font-style:normal;font-variant:normal;font-weight:normal;font-stretch:normal;font-size:medium;line-height:normal;font-family:sans-serif;font-variant-ligatures:normal;font-variant-position:normal;font-variant-caps:normal;font-variant-numeric:normal;font-variant-alternates:normal;font-feature-settings:normal;text-indent:0;text-align:start;text-decoration:none;text-decoration-line:none;text-decoration-style:solid;text-decoration-color:#000000;letter-spacing:normal;word-spacing:normal;text-transform:none;writing-mode:lr-tb;direction:ltr;text-orientation:mixed;dominant-baseline:auto;baseline-shift:baseline;text-anchor:start;white-space:normal;shape-padding:0;clip-rule:nonzero;display:inline;overflow:visible;visibility:visible;opacity:1;isolation:auto;mix-blend-mode:normal;color-interpolation:sRGB;color-interpolation-filters:linearRGB;solid-color:#000000;solid-opacity:1;vector-effect:none;fill:#ffffff;fill-opacity:1;fill-rule:nonzero;stroke:none;stroke-width:0.2;stroke-linecap:butt;stroke-linejoin:miter;stroke-miterlimit:4;stroke-dasharray:none;stroke-dashoffset:0;stroke-opacity:1;color-rendering:auto;image-rendering:auto;shape-rendering:auto;text-rendering:auto;enable-background:accumulate"
             d="m 96.951746,58.682661 c -0.04224,0.0076 -0.08723,0.02884 -0.115651,0.06805 -0.04821,0.06671 -0.03695,0.155502 0.0037,0.219003 0.0406,0.06345 0.107164,0.11385 0.190232,0.149385 0.111121,0.04754 0.205237,0.07874 0.283986,0.09275 0.07874,0.01406 0.141217,0.02 0.202715,-0.01877 0.0308,-0.01944 0.0577,-0.05994 0.05928,-0.09858 0.0019,-0.03869 -0.01447,-0.071 -0.03186,-0.09971 -0.03566,-0.05726 -0.09408,-0.110569 -0.182397,-0.174389 -0.09385,-0.06764 -0.19105,-0.11366 -0.280542,-0.132876 -0.0448,-0.0096 -0.08718,-0.0124 -0.129384,-0.0049 z"
             id="path1304-5-93-7-5" />
        </g>
        <path
           style="fill:none;fill-opacity:1;stroke:none;stroke-width:0.26458332px;stroke-linecap:butt;stroke-linejoin:miter;stroke-opacity:1"
           d="m 576.11328,158.0664 c 0,0 0.0308,-3.01617 0.68248,-6.36565 0.80086,-4.11617 2.16718,-7.8332 3.59911,-10.28661 2.76487,-4.73723 6.0874,-8.73674 10.59871,-10.8955 4.51131,-2.15876 7.82247,-2.3322 13.14628,-3.32314 1.47607,-0.27475 2.46512,-0.38401 4.07927,-0.49208 1.61415,-0.10807 5.6655,0.0321 5.6655,0.0321"
           id="path918-44-0"
           inkscape:connector-curvature="0"
           sodipodi:nodetypes="csszszc" />
      </g>
    </g>
  </g>
</svg>
